<svg width="41" height="40" viewBox="0 0 41 40" fill="none" xmlns="http://www.w3.org/2000/svg">
<rect x="1" y="0.5" width="39" height="39" rx="19.5" stroke="#D6D6D6"/>
<path d="M28.1641 25.5861C27.8873 26.2653 27.5454 26.913 27.1436 27.5191C26.6068 28.3262 26.166 28.8839 25.8281 29.1943C25.3034 29.7015 24.7396 29.9624 24.1369 29.9772C23.7051 29.9772 23.1833 29.8477 22.5756 29.5847C21.9658 29.3227 21.4061 29.1943 20.8933 29.1943C20.3565 29.1943 19.7808 29.3227 19.1641 29.5847C18.5483 29.8477 18.0505 29.9856 17.6697 29.9982C17.093 30.0245 16.5162 29.7572 15.9415 29.1943C15.5746 28.8576 15.1158 28.2788 14.5651 27.4601C13.9753 26.5878 13.4905 25.5724 13.1107 24.4181C12.7039 23.169 12.5 21.961 12.5 20.7909C12.5 19.4514 12.7748 18.2949 13.3256 17.3269C13.7422 16.5666 14.3377 15.932 15.0549 15.4844C15.762 15.0378 16.5693 14.7974 17.3938 14.7878C17.8536 14.7878 18.4564 14.9372 19.203 15.2318C19.9497 15.5264 20.4295 15.6759 20.6384 15.6759C20.7963 15.6759 21.3271 15.5001 22.2307 15.1518C23.0833 14.8288 23.803 14.6952 24.3928 14.7478C25.9921 14.8835 27.1925 15.5464 27.9912 16.7418C26.5618 17.6541 25.8551 18.9305 25.8691 20.5689C25.8811 21.8453 26.3219 22.907 27.1855 23.7499C27.5673 24.1345 28.0128 24.4423 28.5 24.658C28.394 24.981 28.2821 25.2893 28.1641 25.5861V25.5861ZM24.4987 10.4009C24.4987 11.4005 24.1509 12.3349 23.4602 13.1988C22.6245 14.2259 21.615 14.8204 20.5205 14.7267C20.5061 14.601 20.4991 14.4745 20.4995 14.3479C20.4995 13.3872 20.8953 12.3602 21.602 11.5194C21.9538 11.0943 22.4016 10.7397 22.9444 10.4577C23.4862 10.1799 23.9979 10.0263 24.4797 9.99997C24.4927 10.1347 24.4987 10.2683 24.4987 10.4009V10.4009Z" fill="#383A3A"/>
</svg>
