<svg width="26" height="30" viewBox="0 0 26 30" fill="none" xmlns="http://www.w3.org/2000/svg">
<path d="M3.08333 29.1667C2.30417 29.1667 1.63715 28.8893 1.08229 28.3344C0.527431 27.7796 0.25 27.1125 0.25 26.3334V6.50004C0.25 5.72087 0.527431 5.05386 1.08229 4.499C1.63715 3.94414 2.30417 3.66671 3.08333 3.66671H4.5V0.833374H7.33333V3.66671H18.6667V0.833374H21.5V3.66671H22.9167C23.6958 3.66671 24.3628 3.94414 24.9177 4.499C25.4726 5.05386 25.75 5.72087 25.75 6.50004V26.3334C25.75 27.1125 25.4726 27.7796 24.9177 28.3344C24.3628 28.8893 23.6958 29.1667 22.9167 29.1667H3.08333ZM3.08333 26.3334H22.9167V12.1667H3.08333V26.3334ZM3.08333 9.33337H22.9167V6.50004H3.08333V9.33337ZM5.91667 17.8334V15H20.0833V17.8334H5.91667ZM5.91667 23.5V20.6667H15.8333V23.5H5.91667Z" fill="#6AB357"/>
</svg>
